<svg id="Layer_1" data-name="Layer 1" xmlns="http://www.w3.org/2000/svg" viewBox="0 0 512 512"><title>fullscreen</title><path d="M0,256C0,114.61,114.61,0,256,0S512,114.63,512,256,397.38,512,256,512,0,397.39,0,256Z" fill="#2b77c1"/><polygon points="166.27 223.38 166.27 166.27 223.38 166.27 223.38 135.56 135.56 135.56 135.56 223.38 166.27 223.38" fill="#fff"/><polygon points="288.62 166.27 345.73 166.27 345.73 223.38 376.44 223.38 376.44 135.56 288.62 135.56 288.62 166.27" fill="#fff"/><polygon points="345.73 288.62 345.73 345.73 288.62 345.73 288.62 376.44 376.44 376.44 376.44 288.62 345.73 288.62" fill="#fff"/><polygon points="223.38 345.73 166.27 345.73 166.27 288.62 135.56 288.62 135.56 376.44 223.38 376.44 223.38 345.73" fill="#fff"/></svg>